<?xml version="1.0" encoding="UTF-8" standalone="no"?>
<!-- Created with Inkscape (http://www.inkscape.org/) -->

<svg
   width="207.34912mm"
   height="139.89844mm"
   viewBox="0 0 207.34912 139.89844"
   version="1.1"
   id="svg1"
   xml:space="preserve"
   xmlns:inkscape="http://www.inkscape.org/namespaces/inkscape"
   xmlns:sodipodi="http://sodipodi.sourceforge.net/DTD/sodipodi-0.dtd"
   xmlns="http://www.w3.org/2000/svg"
   xmlns:svg="http://www.w3.org/2000/svg"><sodipodi:namedview
     id="namedview1"
     pagecolor="#ffffff"
     bordercolor="#000000"
     borderopacity="0.25"
     inkscape:showpageshadow="2"
     inkscape:pageopacity="0.0"
     inkscape:pagecheckerboard="0"
     inkscape:deskcolor="#d1d1d1"
     inkscape:document-units="mm"
     showguides="true"
     showgrid="true"><inkscape:grid
       id="grid15"
       units="mm"
       originx="-6.2876122"
       originy="-296.88483"
       spacingx="0.99999998"
       spacingy="1"
       empcolor="#0099e5"
       empopacity="0.30196078"
       color="#0099e5"
       opacity="0.14901961"
       empspacing="5"
       dotted="false"
       gridanglex="30"
       gridanglez="30"
       visible="true" /></sodipodi:namedview><defs
     id="defs1" /><g
     inkscape:label="Layer 1"
     inkscape:groupmode="layer"
     id="layer1"
     transform="translate(-1.6635974,-78.550779)"><g
       style="fill:#000000"
       id="g1"
       transform="matrix(0.82682292,0,0,0.82682292,-0.81603119,76.897135)"><path
         id="path1"
         d="m 128.3,56.9 c 15.2,0 27.4,-12.2 27.4,-27.4 C 155.7,14.3 143.5,2 128.3,2 c -15.2,0 -27.4,12.2 -27.4,27.4 0,15.3 12.3,27.5 27.4,27.5 z M 64.6,136.3 H 15.3 c -16,0 -16.9,-24.4 0.3,-24.4 H 58.3 L 82.8,75.8 C 90,66 98.3,61.3 109.9,61.3 h 36.5 c 11.7,0 19.9,4.3 27.1,14.6 l 24.6,36.1 h 43 c 17.2,0 16.2,24.4 0.6,24.4 h -49.3 c -3.9,0 -8.6,-1.4 -11.4,-5.6 L 162.2,104 162.1,171.2 H 94.8 L 94.7,104 75.9,130.8 c -2.7,4.1 -7.4,5.5 -11.3,5.5 z M 224.77714,42.953955 c -16,0 -29,13 -29,29 0,16 13,29.000005 29,29.000005 16,0 29,-13.000005 29,-29.000005 0,-16 -13,-29 -29,-29 z m 11.5,45.7 -11.5,-6 -11.4,6 2.2,-12.7 -9.3,-9 12.8,-1.9 5.7,-11.6 5.7,11.6 12.8,1.8 -9.2,9 z M 37.042289,55.453647 l 4.4,-11.3 h -20.6 l 3.7,11.3 z m 4.4,3.7 v 0 l -20.6,-0.1 v 0.1 c -7.2,3.7 -12.1000002,11.2 -12.1000002,19.8 0,12.4 10.0000002,22.300003 22.3000002,22.300003 12.4,0 22.3,-10.000003 22.3,-22.300003 0.2,-8.6 -4.7,-16.1 -11.9,-19.8 z m -8.9,30.6 v 3.2 h -3.1 v -2.9 c -2.1,-0.1 -4.1,-0.7 -5.3,-1.3 l 0.9,-3.7 c 1.3,0.7 3.2,1.3 5.2,1.3 1.7,0 3.1,-0.7 3.1,-2 0,-1.2 -1.1,-2 -3.3,-2.7 -3.3,-1.1 -5.6,-2.7 -5.6,-5.7 0,-2.8 2,-4.9 5.3,-5.6 v -2.9 h 3.1 v 2.8 c 2.1,0.1 3.5,0.5 4.5,1.1 l -0.9,3.6 c -0.8,-0.4 -2.3,-1.1 -4.5,-1.1 -2,0 -2.7,0.9 -2.7,1.7 0,1.1 1.1,1.7 3.7,2.7 3.7,1.3 5.2,3.1 5.2,5.8 0,2.6 -2,5 -5.6,5.7 z" /></g></g></svg>
