<?xml version="1.0" encoding="UTF-8" standalone="no"?>
<!-- Created with Inkscape (http://www.inkscape.org/) -->

<svg
   width="207.28572mm"
   height="139.89844mm"
   viewBox="0 0 207.28572 139.89844"
   version="1.1"
   id="svg1"
   xml:space="preserve"
   xmlns="http://www.w3.org/2000/svg"
   xmlns:svg="http://www.w3.org/2000/svg"><defs
     id="defs1" /><g
     id="layer1"
     transform="translate(-1.6635974,-78.550779)"><g
       style="fill:#000000"
       id="g1"
       transform="matrix(0.82682292,0,0,0.82682292,-0.81603119,76.897135)"><path
         id="path18-5"
         style="fill:#000000;stroke-width:1.33492"
         d="m 231.10121,40.648769 5.95946,-14.867722 h -27.90112 l 5.01135,14.867722 z m 5.95946,4.868192 v 0 l -27.90112,-0.131572 v 0.131572 c -9.75186,4.868193 -16.38854,14.736149 -16.38854,26.051406 0,16.315023 13.54424,29.340723 30.20366,29.340723 16.79485,0 30.20365,-13.157272 30.20365,-29.340723 0.27088,-11.315257 -6.3658,-21.183213 -16.11765,-26.051406 z m -12.05438,40.261264 v 4.210329 h -4.19871 v -3.81561 c -2.84428,-0.131574 -5.55313,-0.92101 -7.17844,-1.710445 l 1.21897,-4.868193 c 1.76076,0.921009 4.33416,1.710446 7.04302,1.710446 2.30251,0 4.19871,-0.921009 4.19871,-2.631457 0,-1.578873 -1.48986,-2.631453 -4.4696,-3.552463 -4.4696,-1.447301 -7.58476,-3.552465 -7.58476,-7.499647 0,-3.684038 2.70883,-6.447066 7.17844,-7.368075 V 56.4375 h 4.19871 v 3.684037 c 2.84428,0.131573 4.74047,0.657863 6.09492,1.447301 l -1.219,4.736619 c -1.08354,-0.52629 -3.11516,-1.447301 -6.09491,-1.447301 -2.70885,0 -3.65694,1.184155 -3.65694,2.236738 0,1.447299 1.48988,2.236736 5.01137,3.552465 5.01137,1.710445 7.04301,4.078755 7.04301,7.631219 0,3.420891 -2.70885,6.578638 -7.58479,7.499647 z M 128.3,56.9 c 15.2,0 27.4,-12.2 27.4,-27.4 C 155.7,14.3 143.5,2 128.3,2 c -15.2,0 -27.4,12.2 -27.4,27.4 0,15.3 12.3,27.5 27.4,27.5 z M 64.6,136.3 H 15.3 c -16,0 -16.9,-24.4 0.3,-24.4 H 58.3 L 82.8,75.8 C 90,66 98.3,61.3 109.9,61.3 h 36.5 c 11.7,0 19.9,4.3 27.1,14.6 l 24.6,36.1 h 43 c 17.2,0 16.2,24.4 0.6,24.4 h -49.3 c -3.9,0 -8.6,-1.4 -11.4,-5.6 L 162.2,104 162.1,171.2 H 94.8 L 94.7,104 75.9,130.8 c -2.7,4.1 -7.4,5.5 -11.3,5.5 z m -27.557711,-80.846353 4.4,-11.3 h -20.6 l 3.7,11.3 z m 4.4,3.7 v 0 l -20.6,-0.1 v 0.1 c -7.2,3.7 -12.1000002,11.2 -12.1000002,19.8 0,12.4 10.0000002,22.300003 22.3000002,22.300003 12.4,0 22.3,-10.000003 22.3,-22.300003 0.2,-8.6 -4.7,-16.1 -11.9,-19.8 z m -8.9,30.6 v 3.2 h -3.1 v -2.9 c -2.1,-0.1 -4.1,-0.7 -5.3,-1.3 l 0.9,-3.7 c 1.3,0.7 3.2,1.3 5.2,1.3 1.7,0 3.1,-0.7 3.1,-2 0,-1.2 -1.1,-2 -3.3,-2.7 -3.3,-1.1 -5.6,-2.7 -5.6,-5.7 0,-2.8 2,-4.9 5.3,-5.6 v -2.9 h 3.1 v 2.8 c 2.1,0.1 3.5,0.5 4.5,1.1 l -0.9,3.6 c -0.8,-0.4 -2.3,-1.1 -4.5,-1.1 -2,0 -2.7,0.9 -2.7,1.7 0,1.1 1.1,1.7 3.7,2.7 3.7,1.3 5.2,3.1 5.2,5.8 0,2.6 -2,5 -5.6,5.7 z" /></g></g></svg>
